<svg width="303" height="343" viewBox="0 0 303 343" fill="none" xmlns="http://www.w3.org/2000/svg">
<path d="M302.573 62.379C299.534 140.216 297.514 182.621 290.939 246.625C285.377 271.099 279.493 281.226 260.4 288.134C184.362 309.839 131.021 327.216 69.1645 342.024C43.9798 341.42 35.0011 334.859 26.991 320.177C13.3037 268.391 10.7438 211.689 0.814392 139.573C-0.516571 111.761 4.98877 100.465 26.991 88.5958C107.599 54.7466 224.77 8.48904 224.77 8.48904C224.77 8.48904 247.167 -2.28745 260.4 0.478369C275.875 5.33135 282.608 10.7048 290.939 21.5974C300.55 34.4499 303.068 43.3868 302.573 62.379Z" fill="white"/>
</svg>
